<?xml version="1.0" encoding="utf-8"?>
<!-- Generator: Adobe Illustrator 25.4.1, SVG Export Plug-In . SVG Version: 6.00 Build 0)  -->
<svg version="1.1" id="Layer_1" xmlns="http://www.w3.org/2000/svg" xmlns:xlink="http://www.w3.org/1999/xlink" x="0px" y="0px"
	 viewBox="0 0 835.5 205.5" style="enable-background:new 0 0 835.5 205.5;" xml:space="preserve">
<style type="text/css">
	.st0{fill:#FFFFFF;}
</style>
<g>
	<g>
		<g>
			<circle class="st0" cx="34" cy="96.4" r="34"/>
			<circle class="st0" cx="109.2" cy="139" r="20.4"/>
			<circle class="st0" cx="109.2" cy="58.8" r="20.4"/>
			<circle class="st0" cx="173.2" cy="96.4" r="22.1"/>
			<circle class="st0" cx="173.2" cy="165.6" r="16.8"/>
			<circle class="st0" cx="173.2" cy="24.2" r="16.8"/>
			<circle class="st0" cx="231.2" cy="125.4" r="17.9"/>
			<circle class="st0" cx="231.2" cy="182.3" r="9.9"/>
			<circle class="st0" cx="231.2" cy="68.6" r="17.9"/>
			<circle class="st0" cx="282.1" cy="96.4" r="13.1"/>
			<circle class="st0" cx="274.1" cy="51.9" r="11"/>
			<circle class="st0" cx="274.1" cy="140.8" r="11"/>
			<circle class="st0" cx="282.1" cy="17.4" r="7"/>
			<circle class="st0" cx="282.1" cy="175.3" r="7"/>
			<circle class="st0" cx="307.4" cy="125.4" r="7.7"/>
			<circle class="st0" cx="307.4" cy="68.6" r="7.7"/>
			<circle class="st0" cx="231.2" cy="11.8" r="9.9"/>
		</g>
		<g>
			<g>
				<path class="st0" d="M471.1,84.1c17.1,1.7,30.9,7.8,41.9,18.2s16.5,24.3,16.5,41.6c0,18.8-6.4,33.8-19.4,45.1
					c-13,11-28.6,16.5-47.4,16.5c-30.1,0-54.9-14.2-64.5-38.4l12.7-7.5c7.2,19.9,26.3,31.2,51.7,31.2c30.1,0,51.5-18.2,51.5-46.8
					c0-14.2-4.9-25.7-14.7-34.1c-9.5-8.4-22-12.7-37.3-12.7v-0.3l-0.3,0.3h-4L451.1,87l51.2-72.6h-98.9V0h116.5v14.5L471.1,84.1z"/>
			</g>
			<path class="st0" d="M819.3,202.4L799.6,151H698.2l-19.7,51.4h-16.2L741,0h16.2l78.3,202.3L819.3,202.4L819.3,202.4z M704,136.5
				h90.2L749.1,18.8L704,136.5z"/>
			<polygon class="st0" points="665.3,95.4 586.2,95.4 586.2,14.5 696.2,14.5 701.7,0 570.9,0 570.9,202.4 586.2,202.4 586.2,109.9 
				659.8,109.9 			"/>
		</g>
	</g>
</g>
</svg>
