<?xml version="1.0" encoding="utf-8"?>
<!-- Generator: Adobe Illustrator 25.4.1, SVG Export Plug-In . SVG Version: 6.00 Build 0)  -->
<svg version="1.1" id="Layer_1" xmlns="http://www.w3.org/2000/svg" xmlns:xlink="http://www.w3.org/1999/xlink" x="0px" y="0px"
	 viewBox="0 0 340.6 441.2" style="enable-background:new 0 0 340.6 441.2;" xml:space="preserve">
<style type="text/css">
	.st0{fill:#E3BBA7;}
	.st1{fill:#1E1C1C;}
</style>
<g>
	<g>
		<g>
			<circle class="st0" cx="51.7" cy="90.8" r="32.7"/>
			<circle class="st0" cx="123.9" cy="131.7" r="19.6"/>
			<circle class="st0" cx="123.9" cy="54.6" r="19.6"/>
			<circle class="st0" cx="185.3" cy="90.8" r="21.2"/>
			<circle class="st0" cx="185.3" cy="157.3" r="16.1"/>
			<circle class="st0" cx="185.3" cy="21.4" r="16.1"/>
			<circle class="st0" cx="241" cy="118.7" r="17.2"/>
			<circle class="st0" cx="241" cy="173.3" r="9.5"/>
			<circle class="st0" cx="241" cy="64.1" r="17.2"/>
			<circle class="st0" cx="289.9" cy="90.8" r="12.5"/>
			<circle class="st0" cx="282.2" cy="48.1" r="10.5"/>
			<circle class="st0" cx="282.2" cy="133.5" r="10.5"/>
			<circle class="st0" cx="289.9" cy="15" r="6.7"/>
			<circle class="st0" cx="289.9" cy="166.6" r="6.7"/>
			<circle class="st0" cx="314.2" cy="118.7" r="7.4"/>
			<circle class="st0" cx="314.2" cy="64.1" r="7.4"/>
			<circle class="st0" cx="241" cy="9.5" r="9.5"/>
		</g>
		<g>
			<g>
				<path class="st1" d="M56.7,346.6c13.3,1.4,24.1,6.1,32.7,14.2c8.6,8.1,12.8,18.9,12.8,32.4c0,14.6-5,26.3-15.1,35.1
					c-10.1,8.6-22.3,12.8-36.9,12.8c-23.4,0-42.8-11-50.2-29.9l9.9-5.9c5.6,15.5,20.5,24.3,40.3,24.3c23.4,0,40.1-14.2,40.1-36.5
					c0-11-3.8-20-11.5-26.6c-7.4-6.5-17.1-9.9-29-9.9v-0.2l-0.2,0.2h-3.2l-5.2-7.9l39.9-56.5h-77v-11.3h90.7v11.3L56.7,346.6z"/>
			</g>
			<path class="st1" d="M328,438.7l-15.3-40.1h-79l-15.3,40.1h-12.6L267,281.1h12.6l61,157.6H328z M238.2,387.4h70.2l-35.1-91.6
				L238.2,387.4z"/>
			<polygon class="st1" points="208,355.4 146.4,355.4 146.4,292.4 232.1,292.4 236.4,281.1 134.5,281.1 134.5,438.7 146.4,438.7 
				146.4,366.7 203.7,366.7 			"/>
		</g>
	</g>
</g>
</svg>
