<?xml version="1.0" encoding="utf-8"?>
<!-- Generator: Adobe Illustrator 24.0.1, SVG Export Plug-In . SVG Version: 6.00 Build 0)  -->
<svg version="1.1" id="Layer_1" xmlns="http://www.w3.org/2000/svg" xmlns:xlink="http://www.w3.org/1999/xlink" x="0px" y="0px"
	 viewBox="0 0 217.5 136.5" style="enable-background:new 0 0 217.5 136.5;" xml:space="preserve">
<style type="text/css">
	.st0{fill:#3C8F8A;}
	.st1{fill:#3B3735;}
</style>
<g>
	<path class="st0" d="M212.1,41.6c-3.6-8.3-8.5-15.6-14.6-21.7c-6.2-6.1-13.4-11-21.8-14.6c-2-0.8-4-1.6-6-2.2
		c-3-0.9-6.2,0.3-7.8,2.9L151,23.8c-1.5,2.4,0.1,5.5,2.9,5.8c0,0,0,0,0.1,0c2.7,0.3,5.3,0.9,8,1.7c2.7,0.8,5.4,2,8.1,3.7
		c4.8,3,8.8,6.9,11.9,11.6c3.1,4.8,5.1,10,5.9,15.7c0.9,5.9,0.6,11.5-1.1,17c-1.6,5.5-4.2,10.3-7.8,14.5c-3.6,4.2-7.9,7.5-13.1,10
		c-5.1,2.5-10.7,3.7-16.7,3.7h-11.7v-7v-8.1v-40c0-1.9-2.5-2.6-3.5-1l-27.5,44.6c-0.5,0.8-0.8,1.8-0.8,2.8v33.7
		c0,1.2,0.4,2.1,1.2,2.9c0.8,0.8,1.7,1.2,2.7,1.2h39.7c9.4,0,18.2-1.8,26.6-5.4c8.3-3.6,15.6-8.5,21.8-14.7
		c6.2-6.2,11.1-13.4,14.6-21.8c3.6-8.3,5.4-17.2,5.4-26.6S215.7,49.9,212.1,41.6z"/>
	<path class="st1" d="M68.8,131.2c1.2,0,2.2-0.5,2.9-1.4c9.2-12.3,54-72.1,64.3-85.9c1-1.4,1.6-3,1.6-4.8l0-35.3
		c0-1.8-0.9-3-2.7-3.6c-1.8-0.6-3.3-0.2-4.5,1.3C120,15.3,109.7,29,99.5,42.6C89.3,56.3,79,70,68.8,83.8C58.5,70,48.2,56.3,38,42.6
		C27.8,29,17.5,15.3,7.2,1.5C6.1,0.1,4.6-0.3,2.7,0.3C0.9,0.8,0,2,0,3.9v128.5c0,1,0.4,2,1.2,2.8c0.8,0.8,1.7,1.3,2.7,1.3h24.8
		c1.2,0,2.2-0.4,2.9-1.3c0.8-0.8,1.2-1.8,1.2-2.8V96c0-1.1-0.2-2.2-0.7-3.2l-9.6-20.9l43.1,57.7C66.4,130.7,67.5,131.2,68.8,131.2z"
		/>
</g>
</svg>
