<?xml version="1.0" encoding="utf-8"?>
<!-- Generator: Adobe Illustrator 24.0.1, SVG Export Plug-In . SVG Version: 6.00 Build 0)  -->
<svg version="1.1" id="Layer_1" xmlns="http://www.w3.org/2000/svg" xmlns:xlink="http://www.w3.org/1999/xlink" x="0px" y="0px"
	 viewBox="0 0 504 201.3" style="enable-background:new 0 0 504 201.3;" xml:space="preserve">
<style type="text/css">
	.st0{fill:#3B3735;}
	.st1{fill:#3C8F8A;}
</style>
<g>
	<g>
		<path class="st0" d="M35.4,200c-0.3-0.3-0.4-0.6-0.4-0.9v-15.6l-11,14.7c-0.3,0.3-0.6,0.5-1,0.5c-0.4,0-0.8-0.2-1-0.5l-11-14.7
			V199c0,0.3-0.1,0.7-0.4,0.9c-0.3,0.3-0.6,0.4-1,0.4H1.3c-0.3,0-0.7-0.1-0.9-0.4S0,199.4,0,199v-43c0-0.6,0.3-1,0.9-1.2
			c0.6-0.2,1.1-0.1,1.5,0.4c3.4,4.6,6.9,9.2,10.3,13.8c3.4,4.6,6.9,9.1,10.3,13.8c3.4-4.6,6.9-9.2,10.3-13.8
			c3.4-4.6,6.9-9.1,10.3-13.8c0.4-0.5,0.9-0.6,1.5-0.4c0.6,0.2,0.9,0.6,0.9,1.2v43c0,0.3-0.1,0.7-0.4,0.9c-0.3,0.3-0.6,0.4-1,0.4
			h-8.3C36,200.4,35.7,200.2,35.4,200z"/>
		<path class="st0" d="M49,200c-0.3-0.3-0.4-0.6-0.4-1v-43c0-0.3,0.1-0.7,0.4-0.9c0.3-0.3,0.6-0.4,0.9-0.4h25.6
			c0.3,0,0.7,0.1,0.9,0.4c0.3,0.3,0.4,0.6,0.4,0.9v7c0,0.4-0.1,0.7-0.4,0.9c-0.3,0.3-0.6,0.4-0.9,0.4H59.6v13.9h10.7
			c0.3,0,0.7,0.1,0.9,0.4c0.3,0.3,0.4,0.6,0.4,0.9v7c0,0.3-0.1,0.7-0.4,0.9c-0.3,0.3-0.6,0.4-0.9,0.4H59.6v3h17.8
			c0.3,0,0.7,0.1,0.9,0.4c0.3,0.3,0.4,0.6,0.4,0.9v6.9c0,0.4-0.1,0.7-0.4,1c-0.3,0.3-0.6,0.4-0.9,0.4H49.9
			C49.6,200.4,49.3,200.3,49,200z"/>
		<path class="st0" d="M82.7,200.4c-0.3,0-0.7-0.1-0.9-0.4c-0.3-0.3-0.4-0.6-0.4-1v-43c0-0.3,0.1-0.7,0.4-0.9
			c0.3-0.3,0.6-0.4,0.9-0.4H96c3.1,0,6.1,0.6,8.9,1.8c2.8,1.2,5.2,2.8,7.3,4.9c2.1,2.1,3.7,4.5,4.9,7.3c1.2,2.8,1.8,5.8,1.8,8.9
			s-0.6,6.1-1.8,8.9c-1.2,2.8-2.8,5.2-4.9,7.3c-2.1,2.1-4.5,3.7-7.3,4.9c-2.8,1.2-5.8,1.8-8.9,1.8H82.7z M103,166.4
			c-0.9-0.6-1.8-1-2.7-1.2c-0.9-0.3-1.8-0.4-2.7-0.6c-0.9-0.1-1.8-0.2-2.7-0.2s-1.9,0-2.8,0v26.2H96c2,0,3.9-0.4,5.6-1.2
			c1.7-0.8,3.2-1.9,4.4-3.3c1.2-1.4,2.1-3,2.6-4.8c0.5-1.8,0.7-3.7,0.4-5.7c-0.3-1.9-0.9-3.7-2-5.3
			C105.9,168.7,104.6,167.4,103,166.4z"/>
		<path class="st0" d="M121.8,200c-0.3-0.3-0.4-0.6-0.4-0.9v-43c0-0.3,0.1-0.7,0.4-0.9c0.3-0.3,0.6-0.4,0.9-0.4h8.3
			c0.4,0,0.7,0.1,1,0.4c0.3,0.3,0.4,0.6,0.4,0.9v43c0,0.3-0.1,0.7-0.4,0.9c-0.3,0.3-0.6,0.4-1,0.4h-8.3
			C122.4,200.4,122.1,200.2,121.8,200z"/>
		<path class="st0" d="M174.1,198.6c0.1,0.4,0.1,0.8-0.2,1.2c-0.3,0.4-0.6,0.6-1,0.6h-7.6c-0.6,0-1-0.3-1.3-0.9
			c-0.5-1.5-0.9-3-1.4-4.5c-0.5-1.5-0.9-3-1.4-4.4h-13.1c-0.5,1.5-0.9,3-1.4,4.4c-0.5,1.5-0.9,3-1.4,4.5c-0.3,0.6-0.7,0.9-1.3,0.9
			h-7.6c-0.4,0-0.8-0.2-1-0.6c-0.3-0.4-0.3-0.8-0.2-1.2c2.3-7.2,4.6-14.4,6.9-21.5c2.3-7.1,4.6-14.3,6.9-21.5
			c0.2-0.6,0.6-0.9,1.2-0.9h9.1c0.7,0,1.1,0.3,1.2,0.9c2.3,7.2,4.6,14.4,6.9,21.5C169.5,184.3,171.8,191.4,174.1,198.6z
			 M158.1,180.9l-3.5-11l-3.5,11H158.1z"/>
		<path class="st0" d="M170.3,155.1c0.3-0.3,0.6-0.4,0.9-0.4h31.4c0.3,0,0.7,0.1,0.9,0.4c0.3,0.3,0.4,0.6,0.4,0.9v7
			c0,0.4-0.1,0.7-0.4,0.9c-0.3,0.3-0.6,0.4-0.9,0.4h-10.2V199c0,0.3-0.1,0.7-0.4,0.9s-0.6,0.4-0.9,0.4h-8.3c-0.4,0-0.7-0.1-1-0.4
			s-0.4-0.6-0.4-0.9v-34.7h-10.2c-0.3,0-0.7-0.1-0.9-0.4s-0.4-0.6-0.4-0.9v-7C169.9,155.6,170,155.3,170.3,155.1z"/>
		<path class="st0" d="M213.4,198c-2.7-1.7-4.9-3.8-6.7-6.3c-1.8-2.5-3-5.2-3.7-8.1c-0.7-2.9-0.8-5.9-0.5-8.9c0.4-3,1.4-5.9,2.9-8.7
			c1.6-2.8,3.6-5.1,6-7c2.5-1.9,5.1-3.2,7.9-4c2.8-0.8,5.8-1,8.8-0.6c3.1,0.4,5.9,1.5,8.7,3.2c2.7,1.7,4.9,3.8,6.7,6.3
			c1.7,2.5,3,5.2,3.7,8.1c0.7,2.9,0.9,5.9,0.5,8.9c-0.4,3.1-1.3,5.9-2.9,8.7c-1.6,2.8-3.6,5.1-6,7c-2.5,1.9-5.1,3.2-7.9,4
			c-2.8,0.8-5.8,1-8.8,0.6C219,200.7,216.1,199.7,213.4,198z M213.6,171.4c-0.8,1.6-1.3,3.3-1.5,5c-0.2,1.7,0,3.4,0.4,5.1
			c0.5,1.6,1.2,3.2,2.3,4.6c1.1,1.4,2.4,2.6,4,3.5c1.6,0.9,3.3,1.5,5,1.6c1.7,0.2,3.4,0,5.1-0.5c1.6-0.5,3.1-1.3,4.5-2.4
			c1.4-1.1,2.5-2.5,3.3-4.2c0.8-1.6,1.3-3.3,1.5-5c0.2-1.7,0-3.4-0.5-5.1c-0.5-1.7-1.2-3.2-2.3-4.6c-1-1.4-2.4-2.5-4-3.5
			c-1.6-0.9-3.3-1.5-5-1.6c-1.7-0.2-3.4,0-5,0.5c-1.6,0.5-3.1,1.3-4.5,2.5C215.6,168.4,214.5,169.8,213.6,171.4z"/>
		<path class="st0" d="M286.1,200c-0.3-0.3-0.4-0.6-0.4-0.9v-15.6l-11,14.7c-0.3,0.3-0.6,0.5-1,0.5s-0.8-0.2-1-0.5l-11-14.7V199
			c0,0.3-0.1,0.7-0.4,0.9c-0.3,0.3-0.6,0.4-1,0.4h-8.3c-0.3,0-0.7-0.1-0.9-0.4s-0.4-0.6-0.4-0.9v-43c0-0.6,0.3-1,0.9-1.2
			c0.6-0.2,1.1-0.1,1.5,0.4c3.4,4.6,6.9,9.2,10.3,13.8c3.4,4.6,6.9,9.1,10.3,13.8c3.4-4.6,6.9-9.2,10.3-13.8
			c3.4-4.6,6.9-9.1,10.3-13.8c0.4-0.5,0.9-0.6,1.5-0.4c0.6,0.2,0.9,0.6,0.9,1.2v43c0,0.3-0.1,0.7-0.4,0.9c-0.3,0.3-0.6,0.4-1,0.4
			H287C286.6,200.4,286.3,200.2,286.1,200z"/>
		<path class="st0" d="M316.3,200.4c-0.3,0-0.7-0.1-0.9-0.4s-0.4-0.6-0.4-1v-43c0-0.3,0.1-0.7,0.4-0.9c0.3-0.3,0.6-0.4,0.9-0.4h13.3
			c3.1,0,6.1,0.6,8.9,1.8c2.8,1.2,5.2,2.8,7.3,4.9c2.1,2.1,3.7,4.5,4.9,7.3c1.2,2.8,1.8,5.8,1.8,8.9s-0.6,6.1-1.8,8.9
			c-1.2,2.8-2.8,5.2-4.9,7.3c-2.1,2.1-4.5,3.7-7.3,4.9c-2.8,1.2-5.8,1.8-8.9,1.8H316.3z M336.5,166.4c-0.9-0.6-1.8-1-2.7-1.2
			c-0.9-0.3-1.8-0.4-2.7-0.6c-0.9-0.1-1.8-0.2-2.7-0.2c-0.9,0-1.9,0-2.8,0v26.2h3.9c2,0,3.9-0.4,5.6-1.2c1.7-0.8,3.2-1.9,4.4-3.3
			c1.2-1.4,2.1-3,2.6-4.8c0.5-1.8,0.7-3.7,0.4-5.7c-0.3-1.9-0.9-3.7-2-5.3C339.5,168.7,338.1,167.4,336.5,166.4z"/>
		<path class="st0" d="M355.4,200c-0.3-0.3-0.4-0.6-0.4-1v-43c0-0.3,0.1-0.7,0.4-0.9c0.3-0.3,0.6-0.4,0.9-0.4h25.6
			c0.3,0,0.7,0.1,0.9,0.4c0.3,0.3,0.4,0.6,0.4,0.9v7c0,0.4-0.1,0.7-0.4,0.9c-0.3,0.3-0.6,0.4-0.9,0.4H366v13.9h10.7
			c0.3,0,0.7,0.1,0.9,0.4c0.3,0.3,0.4,0.6,0.4,0.9v7c0,0.3-0.1,0.7-0.4,0.9c-0.3,0.3-0.6,0.4-0.9,0.4H366v3h17.8
			c0.3,0,0.7,0.1,0.9,0.4c0.3,0.3,0.4,0.6,0.4,0.9v6.9c0,0.4-0.1,0.7-0.4,1s-0.6,0.4-0.9,0.4h-27.5C356,200.4,355.7,200.3,355.4,200
			z"/>
		<path class="st0" d="M398.4,177.4c2,0.9,3.5,2,4.6,3.5c1.1,1.5,1.8,3.1,2.2,4.8c0.3,1.7,0.3,3.4-0.1,5.1c-0.4,1.7-1.1,3.3-2.1,4.7
			s-2.4,2.6-4,3.4c-1.6,0.9-3.5,1.3-5.7,1.3h-3.1c-0.3,0-0.7-0.1-0.9-0.4c-0.3-0.3-0.4-0.6-0.4-0.9v-7c0-0.3,0.1-0.7,0.4-0.9
			c0.3-0.3,0.6-0.4,0.9-0.4h3.1c0.7,0,1.2-0.2,1.6-0.6c0.4-0.4,0.6-0.8,0.8-1.3c0.1-0.5,0.1-1-0.2-1.5c-0.2-0.5-0.6-0.9-1.2-1.2
			c-1.7-0.8-3.2-1.8-4.5-3.1c-1.3-1.3-2.4-2.7-3.2-4.3c-0.8-1.6-1.4-3.3-1.7-5.1c-0.3-1.8-0.3-3.7,0.1-5.5c0.3-1.8,0.9-3.5,1.8-5.1
			c0.9-1.6,2-3,3.3-4.2c1.3-1.2,2.8-2.2,4.4-2.9s3.4-1.2,5.3-1.4c0.4,0,0.7,0.1,1,0.3c0.3,0.3,0.4,0.6,0.4,1v7.1
			c0,0.7-0.4,1.2-1.1,1.3c-1.7,0.3-3.1,1-4.1,2.1c-1,1.1-1.6,2.4-1.8,3.8c-0.2,1.4,0,2.8,0.7,4.2
			C395.7,175.6,396.8,176.7,398.4,177.4z"/>
		<path class="st0" d="M408.4,200c-0.3-0.3-0.4-0.6-0.4-0.9v-43c0-0.3,0.1-0.7,0.4-0.9c0.3-0.3,0.6-0.4,0.9-0.4h8.3
			c0.4,0,0.7,0.1,1,0.4c0.3,0.3,0.4,0.6,0.4,0.9v43c0,0.3-0.1,0.7-0.4,0.9c-0.3,0.3-0.6,0.4-1,0.4h-8.3
			C409,200.4,408.7,200.2,408.4,200z"/>
		<path class="st0" d="M467.3,178.8c-0.1,2.7-0.6,5.3-1.5,7.7c-0.9,2.4-2.2,4.6-3.8,6.6c-1.6,2-3.5,3.6-5.8,4.9
			c-2.2,1.3-4.7,2.2-7.5,2.6c-2.7,0.4-5.3,0.4-7.9-0.1c-2.6-0.5-5-1.4-7.2-2.6c-2.2-1.2-4.2-2.8-6-4.8c-1.8-1.9-3.2-4.2-4.2-6.6
			c-1-2.5-1.6-5-1.8-7.6c-0.2-2.6,0.1-5.2,0.8-7.6c0.7-2.5,1.7-4.8,3.2-7c1.4-2.2,3.2-4.1,5.4-5.8c2.1-1.6,4.5-2.8,7-3.6
			c2.5-0.8,5-1.2,7.6-1.1c2.5,0,5.1,0.5,7.5,1.4c2.5,0.9,4.8,2.2,6.9,3.9c0.3,0.3,0.5,0.6,0.5,0.9c0,0.4-0.1,0.7-0.4,1
			c-0.9,0.9-1.7,1.8-2.5,2.7c-0.8,0.9-1.6,1.8-2.5,2.7c-0.5,0.6-1.1,0.7-1.8,0.2c-1.5-1.2-3.1-2-4.8-2.4c-1.7-0.4-3.4-0.5-5-0.3
			c-1.7,0.2-3.2,0.7-4.7,1.5c-1.5,0.8-2.7,1.8-3.8,3.1c-1.1,1.2-1.9,2.7-2.5,4.3c-0.6,1.6-0.9,3.4-0.7,5.3c0.1,1.9,0.6,3.7,1.4,5.2
			c0.8,1.6,1.8,2.9,3,4c1.2,1.1,2.6,1.9,4.2,2.5c1.6,0.6,3.2,0.9,4.9,0.9s3.3-0.3,4.9-0.9c1.6-0.6,3.1-1.6,4.5-3h-9.1
			c-0.3,0-0.7-0.1-0.9-0.4c-0.3-0.3-0.4-0.6-0.4-0.9v-7c0-0.3,0.1-0.7,0.4-0.9c0.3-0.3,0.6-0.4,0.9-0.4H466c0.4,0,0.7,0.1,1,0.4
			C467.3,178.1,467.4,178.5,467.3,178.8z"/>
		<path class="st0" d="M470.9,154.8c0.6-0.2,1.1-0.1,1.5,0.4c3.4,4.6,6.9,9.2,10.3,13.8c3.4,4.6,6.9,9.1,10.3,13.8V156
			c0-0.3,0.1-0.7,0.4-0.9c0.3-0.3,0.6-0.4,0.9-0.4h8.3c0.4,0,0.7,0.1,1,0.4c0.3,0.3,0.4,0.6,0.4,0.9v43c0,0.3-0.1,0.7-0.4,0.9
			c-0.3,0.3-0.6,0.4-1,0.4h-8.3c-0.4,0-0.8-0.2-1-0.6c-2.1-2.7-4.1-5.5-6.1-8.2c-2-2.7-4.1-5.5-6.1-8.2V199c0,0.3-0.1,0.7-0.4,0.9
			c-0.3,0.3-0.6,0.4-1,0.4h-8.3c-0.3,0-0.7-0.1-0.9-0.4c-0.3-0.3-0.4-0.6-0.4-0.9v-43C470,155.4,470.3,155,470.9,154.8z"/>
	</g>
	<g>
		<path class="st1" d="M355.4,41.6c-3.6-8.3-8.5-15.6-14.6-21.7c-6.2-6.1-13.4-11-21.8-14.6c-2-0.8-4-1.6-6-2.2
			c-3-0.9-6.2,0.3-7.8,2.9l-10.9,17.7c-1.5,2.4,0.1,5.5,2.9,5.8c0,0,0,0,0.1,0c2.7,0.3,5.3,0.9,8,1.7c2.7,0.8,5.4,2,8.1,3.7
			c4.8,3,8.8,6.9,11.9,11.6c3.1,4.8,5.1,10,5.9,15.7c0.9,5.9,0.6,11.5-1.1,17c-1.6,5.5-4.2,10.3-7.8,14.5c-3.6,4.2-7.9,7.5-13.1,10
			c-5.1,2.5-10.7,3.7-16.7,3.7h-11.7v-7v-8.1v-40c0-1.9-2.5-2.6-3.5-1l-27.5,44.6c-0.5,0.8-0.8,1.8-0.8,2.8v33.7
			c0,1.2,0.4,2.1,1.2,2.9c0.8,0.8,1.7,1.2,2.7,1.2h39.7c9.4,0,18.2-1.8,26.6-5.4c8.3-3.6,15.6-8.5,21.8-14.7
			c6.2-6.2,11.1-13.4,14.6-21.8c3.6-8.3,5.4-17.2,5.4-26.6S358.9,49.9,355.4,41.6z"/>
		<path class="st0" d="M212,131.2c1.2,0,2.2-0.5,2.9-1.4c9.2-12.3,54-72.1,64.3-85.9c1-1.4,1.6-3,1.6-4.8V3.9c0-1.8-0.9-3-2.7-3.6
			c-1.8-0.6-3.3-0.2-4.5,1.3C263.3,15.3,253,29,242.8,42.6C232.6,56.3,222.3,70,212,83.8c-10.3-13.8-20.5-27.5-30.8-41.1
			C171,29,160.8,15.3,150.5,1.5c-1.2-1.4-2.7-1.9-4.5-1.3c-1.8,0.6-2.7,1.8-2.7,3.6v128.5c0,1,0.4,2,1.2,2.8
			c0.8,0.8,1.7,1.3,2.7,1.3H172c1.2,0,2.2-0.4,2.9-1.3c0.8-0.8,1.2-1.8,1.2-2.8V96c0-1.1-0.2-2.2-0.7-3.2l-9.6-20.9l43.1,57.7
			C209.7,130.7,210.7,131.2,212,131.2z"/>
	</g>
</g>
</svg>
